<?xml version="1.0" encoding="utf-8"?>
<svg xmlns="http://www.w3.org/2000/svg" viewBox="0 0 128 128">
  <rect x="4" y="4" width="120" height="120" rx="28" fill="#f8f5ff" stroke="#d9ccff" stroke-width="2" />
  <g transform="translate(20 20) scale(5.5)">
    <defs>
      <linearGradient id="brand-1" gradientUnits="userSpaceOnUse" x1="-2.221" y1="5.2687" x2="16.0184" y2="11.1489">
        <stop offset="0" stop-color="#FA23B9" />
        <stop offset="0.14" stop-color="#F724C2" />
        <stop offset="0.37" stop-color="#F028DA" />
        <stop offset="0.6" stop-color="#E62DFA" />
        <stop offset="1" stop-color="#2882FF" />
      </linearGradient>
      <linearGradient id="brand-2" gradientUnits="userSpaceOnUse" x1="-1.5739" y1="3.2612" x2="16.6656" y2="9.1414">
        <stop offset="0" stop-color="#FA23B9" />
        <stop offset="0.14" stop-color="#F724C2" />
        <stop offset="0.37" stop-color="#F028DA" />
        <stop offset="0.6" stop-color="#E62DFA" />
        <stop offset="1" stop-color="#2882FF" />
      </linearGradient>
      <linearGradient id="brand-3" gradientUnits="userSpaceOnUse" x1="-2.0375" y1="4.6993" x2="16.202" y2="10.5795">
        <stop offset="0" stop-color="#FA23B9" />
        <stop offset="0.14" stop-color="#F724C2" />
        <stop offset="0.37" stop-color="#F028DA" />
        <stop offset="0.6" stop-color="#E62DFA" />
        <stop offset="1" stop-color="#2882FF" />
      </linearGradient>
      <linearGradient id="brand-4" gradientUnits="userSpaceOnUse" x1="-2.1788" y1="5.1378" x2="16.0606" y2="11.018">
        <stop offset="0" stop-color="#FA23B9" />
        <stop offset="0.14" stop-color="#F724C2" />
        <stop offset="0.37" stop-color="#F028DA" />
        <stop offset="0.6" stop-color="#E62DFA" />
        <stop offset="1" stop-color="#2882FF" />
      </linearGradient>
    </defs>
    <path fill="url(#brand-1)" d="M7.5,8.1C7.3,8.4,7.3,8.8,7.6,9c0.2,0.2,0.6,0.2,0.9,0h0c0.1-0.1,0.2-0.3,0.2-0.4c0-0.2-0.1-0.3-0.2-0.4C8.2,7.9,7.8,7.9,7.5,8.1z" />
    <path fill="url(#brand-2)" d="M9.8,6.5c-0.3,0.3-0.3,0.9,0,1.2c0.3,0.3,0.9,0.3,1.2,0h0c0.2-0.2,0.3-0.4,0.3-0.6c0-0.2-0.1-0.5-0.3-0.6C10.7,6.2,10.2,6.2,9.8,6.5z" />
    <path fill="url(#brand-3)" d="M4.9,6.5c-0.3,0.3-0.3,0.9,0,1.2c0.3,0.3,0.9,0.3,1.2,0c0.2-0.2,0.3-0.4,0.3-0.6c0-0.2-0.1-0.5-0.3-0.6C5.8,6.2,5.3,6.2,4.9,6.5z" />
    <path fill="url(#brand-4)" d="M15.9,7.7c0-0.9-0.7-1.6-1.6-1.6c-0.1,0-0.3,0-0.4,0.1c-0.9-2.4-3.2-4-5.8-4c-2.6,0-4.9,1.6-5.8,4C2,6.1,1.9,6.1,1.8,6.1c-0.9,0-1.6,0.7-1.6,1.6c0,0.9,0.7,1.6,1.6,1.6h0.1c0.5,3.1,3.1,5.3,6.2,5.3c3.1,0,5.7-2.3,6.2-5.3h0.1C15.1,9.3,15.9,8.6,15.9,7.7L15.9,7.7z M11.3,8.5l-1.1,0.6L9.9,9.3L9.6,9.5v1.9C9.6,12.3,8.9,13,8,13c-0.9,0-1.6-0.7-1.6-1.6V9.5L6.1,9.3L5.8,9.2L4.7,8.5c-0.8-0.4-1-1.4-0.6-2.2c0.4-0.8,1.4-1,2.2-0.6l1.1,0.6l0.3,0.2L8,6.7l0.3-0.2l0.3-0.2l1.1-0.6c0,0,0,0,0,0c0.8-0.4,1.8-0.2,2.2,0.6h0c0,0,0,0,0,0C12.3,7.1,12.1,8.1,11.3,8.5z" />
  </g>
</svg>
